<?xml version="1.0" ?><!DOCTYPE svg  PUBLIC '-//W3C//DTD SVG 1.1//EN'  'http://www.w3.org/Graphics/SVG/1.1/DTD/svg11.dtd'><svg height="8.4666mm" style="shape-rendering:geometricPrecision; text-rendering:geometricPrecision; image-rendering:optimizeQuality; fill-rule:evenodd; clip-rule:evenodd" version="1.1" viewBox="0 0 846.66 846.66" width="8.4666mm" xml:space="preserve" xmlns="http://www.w3.org/2000/svg" xmlns:xlink="http://www.w3.org/1999/xlink"><defs><style type="text/css">
   <![CDATA[
    .fil0 {fill:black;fill-rule:nonzero}
   ]]>
  </style></defs><g id="Layer_x0020_1"><path class="fil0" d="M28.57 14.28l661.53 0c11.46,0 20.76,9.3 20.76,20.76l0 74.14 107.23 0c11.46,0 20.76,9.29 20.76,20.76l0 355.4c0,5.45 -2.1,10.4 -5.53,14.1l-122.46 152.56 0 159.62c0,11.46 -9.3,20.76 -20.76,20.76l-661.53 0c-11.46,0 -20.76,-9.3 -20.76,-20.76l0 -776.58c0,-11.46 9.3,-20.76 20.76,-20.76zm682.29 136.42l0 435.15 86.47 -107.72 0 -327.43 -86.47 0zm-325.64 465.96c-11.46,0 -20.76,-9.3 -20.76,-20.76 0,-11.46 9.3,-20.76 20.76,-20.76l142.38 0c27.3,0 27.3,41.52 0,41.52l-142.38 0zm-194.14 -241.6c-27.31,0 -27.31,-41.52 0,-41.52l336.52 0c27.3,0 27.3,41.52 0,41.52l-336.52 0zm0 112.17c-27.31,0 -27.31,-41.52 0,-41.52l336.52 0c27.3,0 27.3,41.52 0,41.52l-336.52 0zm23.01 -307.75c-27.31,0 -27.31,-41.52 0,-41.52l290.5 0c27.3,0 27.3,41.52 0,41.52l-290.5 0zm455.25 -123.68l-620.01 0 0 735.06 620.01 0 0 -735.06z"/></g></svg>